<svg width="24" height="24" viewBox="0 0 24 24" fill="none" xmlns="http://www.w3.org/2000/svg">
<path d="M0 4C0 1.79086 1.79086 0 4 0H20C22.2091 0 24 1.79086 24 4V20C24 22.2091 22.2091 24 20 24H4C1.79086 24 0 22.2091 0 20V4Z" fill="#009BA1"/>
<path fill-rule="evenodd" clip-rule="evenodd" d="M7.49998 5.34961C7.14099 5.34961 6.84998 5.64062 6.84998 5.99961V6.57367C6.83347 6.57242 6.8168 6.57178 6.79998 6.57178H5.49998C5.14099 6.57178 4.84998 6.86279 4.84998 7.22178V16.9995C4.84998 17.3585 5.14099 17.6495 5.49998 17.6495H18.5C18.859 17.6495 19.15 17.3585 19.15 16.9995V7.22178C19.15 6.86279 18.859 6.57178 18.5 6.57178H17.2C17.1832 6.57178 17.1665 6.57242 17.15 6.57367V5.99961C17.15 5.64062 16.859 5.34961 16.5 5.34961C15.0012 5.34961 13.3524 5.67169 12 6.55858C10.6476 5.67169 8.99879 5.34961 7.49998 5.34961ZM17.15 7.86988V13.95C17.15 14.3089 16.859 14.6 16.5 14.6C15.025 14.6 13.5127 14.9532 12.3994 15.8203C12.1645 16.0031 11.8354 16.0031 11.6006 15.8203C10.4873 14.9532 8.97499 14.6 7.49998 14.6C7.14099 14.6 6.84998 14.309 6.84998 13.95V7.86988C6.83347 7.87114 6.8168 7.87178 6.79998 7.87178H6.14998V16.3495H17.85V7.87178H17.2C17.1832 7.87178 17.1665 7.87114 17.15 7.86988ZM12 14.509C10.8407 13.7488 9.46366 13.4035 8.14998 13.3204V6.67291C9.30194 6.75642 10.4377 7.06925 11.3499 7.68768L11.3499 11.0509C11.3499 11.4099 11.641 11.7009 11.9999 11.7009C12.3589 11.7009 12.6499 11.4099 12.6499 11.0509V7.68772C13.5622 7.06927 14.698 6.75643 15.85 6.67291V13.3204C14.5363 13.4035 13.1593 13.7488 12 14.509Z" fill="white"/>
</svg>
